<svg width="26" height="26" viewBox="0 0 26 26" fill="none" xmlns="http://www.w3.org/2000/svg">
<path fill-rule="evenodd" clip-rule="evenodd" d="M10.2345 2.28111C10.7696 2.54869 10.9865 3.19941 10.719 3.73456L8.78105 7.61041C8.51347 8.14555 7.86275 8.36246 7.3276 8.09489C6.79246 7.82731 6.57555 7.17659 6.84312 6.64144L8.78105 2.76559C9.04862 2.23045 9.69934 2.01354 10.2345 2.28111Z" fill="#0CAF82"/>
<path fill-rule="evenodd" clip-rule="evenodd" d="M15.7656 2.28111C16.3008 2.01354 16.9515 2.23045 17.2191 2.7656L19.157 6.64144C19.4245 7.17659 19.2077 7.82732 18.6725 8.09488C18.1373 8.36246 17.4866 8.14555 17.2191 7.61041L15.2811 3.73455C15.0135 3.19941 15.2304 2.54868 15.7656 2.28111Z" fill="#0CAF82"/>
<path fill-rule="evenodd" clip-rule="evenodd" d="M6.99748 6.5C4.36043 6.5 2.33476 8.83561 2.7077 11.4462L3.81291 19.1827C4.19414 21.8513 6.47954 23.8333 9.17514 23.8333H16.8252C19.5209 23.8333 21.8063 21.8513 22.1875 19.1827L23.2927 11.4462C23.6656 8.83561 21.64 6.5 19.0029 6.5H6.99748ZM13 10.8333C13.5983 10.8333 14.0833 11.3183 14.0833 11.9167V14.0833H16.25C16.8483 14.0833 17.3333 14.5683 17.3333 15.1667C17.3333 15.765 16.8483 16.25 16.25 16.25H14.0833V18.4167C14.0833 19.015 13.5983 19.5 13 19.5C12.4016 19.5 11.9166 19.015 11.9166 18.4167V16.25H9.74996C9.15166 16.25 8.66663 15.765 8.66663 15.1667C8.66663 14.5683 9.15166 14.0833 9.74996 14.0833H11.9166V11.9167C11.9166 11.3183 12.4016 10.8333 13 10.8333Z" fill="#0CAF82"/>
</svg>
