<svg width="26" height="26" viewBox="0 0 26 26" fill="none" xmlns="http://www.w3.org/2000/svg">
<path fill-rule="evenodd" clip-rule="evenodd" d="M7.58342 2.16675C4.59188 2.16675 2.16675 4.59188 2.16675 7.58342V18.4167C2.16675 21.4083 4.59188 23.8334 7.58342 23.8334H18.4167C21.4083 23.8334 23.8334 21.4083 23.8334 18.4167V7.58342C23.8334 4.59188 21.4083 2.16675 18.4167 2.16675H7.58342ZM17.3334 7.58342C17.9317 7.58342 18.4167 8.06844 18.4167 8.66675V17.3334C18.4167 17.9317 17.9317 18.4167 17.3334 18.4167C16.7351 18.4167 16.2501 17.9317 16.2501 17.3334V8.66675C16.2501 8.06844 16.7351 7.58342 17.3334 7.58342ZM8.66675 14.0834C9.26505 14.0834 9.75008 14.5684 9.75008 15.1667V17.3334C9.75008 17.9317 9.26506 18.4167 8.66675 18.4167C8.06844 18.4167 7.58342 17.9317 7.58342 17.3334V15.1667C7.58342 14.5684 8.06844 14.0834 8.66675 14.0834ZM14.0834 11.9167C14.0834 11.3184 13.5984 10.8334 13.0001 10.8334C12.4018 10.8334 11.9167 11.3184 11.9167 11.9167V17.3334C11.9167 17.9317 12.4018 18.4167 13.0001 18.4167C13.5984 18.4167 14.0834 17.9317 14.0834 17.3334V11.9167Z" fill="#0CAF82"/>
</svg>
