<svg width="360" height="800" viewBox="0 0 360 800" fill="none" xmlns="http://www.w3.org/2000/svg">
<g clip-path="url(#clip0_338_1003)">
<rect width="360" height="800" fill="white"/>
<rect width="360" height="800" fill="black"/>
<path fill-rule="evenodd" clip-rule="evenodd" d="M360 51V406.868C274.837 392.375 210 318.226 210 228.934C210 139.642 274.837 65.4933 360 51Z" fill="#104C37"/>
<path fill-rule="evenodd" clip-rule="evenodd" d="M211.896 0C208.465 131.943 120.409 242.821 0 280.362V0H211.896Z" fill="#0CAF82"/>
<path d="M37 206C37 171.206 65.2061 143 100 143H207C219.703 143 230 153.297 230 166V273C230 307.794 201.794 336 167 336H60C47.2974 336 37 325.703 37 313V206Z" fill="black" stroke="#0CAF82" stroke-width="4"/>
<path d="M120.794 195.314L129.231 209.826H112.357L120.794 195.314Z" fill="#9EDFCD"/>
<path d="M120.794 224.455L112.357 209.942H129.231L120.794 224.455Z" fill="#85D7C0"/>
<path d="M137.459 224.455L129.022 209.942H145.896L137.459 224.455Z" fill="#85D7C0"/>
<path d="M120.794 224.825L129.231 239.338H112.357L120.794 224.825Z" fill="#3DBF9B"/>
<path d="M137.459 224.825L145.896 239.338H129.022L137.459 224.825Z" fill="#3DBF9B"/>
<path d="M129.127 210.012L137.564 224.524H120.69L129.127 210.012Z" fill="#6DCFB4"/>
<path d="M129.127 239.222L120.69 224.709H137.563L129.127 239.222Z" fill="#54C7A7"/>
<path d="M112.357 209.826L103.92 195.314H120.794L112.357 209.826Z" fill="#B6E7D9"/>
<path d="M137.344 195.314L145.78 209.826H128.907L137.344 195.314Z" fill="#9EDFCD"/>
<path d="M145.78 209.826L137.344 195.314H154.217L145.78 209.826Z" fill="#B6E7D9"/>
<path d="M120.794 253.99L112.357 239.477H129.231L120.794 253.99Z" fill="#24B78E"/>
<path d="M112.357 239.477L120.794 253.99H103.92L112.357 239.477Z" fill="#0CAF82"/>
<path d="M137.343 253.99L128.907 239.477H145.78L137.343 253.99Z" fill="#24B78E"/>
<path d="M145.781 239.477L154.217 253.99H137.344L145.781 239.477Z" fill="#0CAF82"/>
<path d="M168.938 253.99L160.501 239.477H177.375L168.938 253.99Z" fill="#24B78E"/>
<path d="M177.375 239.477L185.812 253.99H168.938L177.375 239.477Z" fill="#0CAF82"/>
<path d="M160.374 239.164L151.937 224.652H168.811L160.374 239.164Z" fill="#54C7A7"/>
<path d="M168.811 224.652L177.248 239.164H160.374L168.811 224.652Z" fill="#3DBF9B"/>
<path d="M168.811 224.338L160.374 209.825H177.248L168.811 224.338Z" fill="#85D7C0"/>
<path d="M160.374 209.825L168.811 224.338H151.938L160.374 209.825Z" fill="#6DCFB4"/>
<path d="M177.375 209.513L168.938 195H185.812L177.375 209.513Z" fill="#B6E7D9"/>
<path d="M168.938 195L177.375 209.513H160.501L168.938 195Z" fill="#9EDFCD"/>
<path d="M89.3151 253.99L80.8783 239.477H97.752L89.3151 253.99Z" fill="#24B78E"/>
<path d="M80.8782 239.477L89.3151 253.99H72.4414L80.8782 239.477Z" fill="#0CAF82"/>
<path d="M97.8791 239.164L89.4423 224.652H106.316L97.8791 239.164Z" fill="#54C7A7"/>
<path d="M89.4427 224.652L97.8795 239.164H81.0059L89.4427 224.652Z" fill="#3DBF9B"/>
<path d="M89.4421 224.338L81.0052 209.825H97.8789L89.4421 224.338Z" fill="#85D7C0"/>
<path d="M97.8797 209.825L106.317 224.338H89.4429L97.8797 209.825Z" fill="#6DCFB4"/>
<path d="M80.8781 209.513L72.4413 195H89.3149L80.8781 209.513Z" fill="#B6E7D9"/>
<path d="M89.3148 195L97.7516 209.513H80.8779L89.3148 195Z" fill="#9EDFCD"/>
<path d="M73.0943 272.147L76.2236 267.332H80.8575L75.4413 274.945C76.6449 276.45 77.7382 277.914 78.7211 279.338C79.7041 280.762 80.4864 282.036 81.0682 283.16H76.2537C76.0933 282.859 75.8927 282.488 75.6519 282.046C75.4112 281.585 75.1404 281.114 74.8395 280.632C74.5386 280.131 74.2176 279.639 73.8766 279.158C73.5556 278.656 73.2347 278.205 72.9137 277.804C72.6128 278.185 72.3019 278.606 71.9809 279.067C71.68 279.529 71.3892 280 71.1083 280.482C70.8275 280.943 70.5466 281.404 70.2658 281.866C70.005 282.327 69.7743 282.758 69.5737 283.16H65C65.2407 282.658 65.5717 282.066 65.993 281.384C66.4142 280.702 66.8656 280 67.347 279.278C67.8485 278.536 68.3701 277.804 68.9117 277.081C69.4534 276.339 69.9849 275.647 70.5065 275.005C69.6038 273.741 68.7011 272.468 67.7984 271.184C66.8957 269.88 66.003 268.596 65.1204 267.332H69.9649L73.0943 272.147Z" fill="#0CAF82"/>
<path d="M103.747 262.307V266.309H97.4586V283.16H92.7646V266.309H86.4757V262.307H103.747Z" fill="white"/>
<path d="M118.429 271.304C118.028 271.204 117.557 271.104 117.015 271.003C116.473 270.883 115.892 270.823 115.27 270.823C114.989 270.823 114.648 270.853 114.247 270.913C113.865 270.953 113.575 271.003 113.374 271.063V283.16H108.891V268.175C109.693 267.894 110.636 267.633 111.719 267.392C112.822 267.132 114.046 267.001 115.39 267.001C115.631 267.001 115.922 267.021 116.263 267.061C116.604 267.081 116.945 267.122 117.286 267.182C117.627 267.222 117.968 267.282 118.309 267.362C118.65 267.422 118.941 267.503 119.181 267.603L118.429 271.304Z" fill="white"/>
<path d="M131.853 280.03C132.294 280.03 132.715 280.02 133.116 280C133.518 279.98 133.839 279.95 134.079 279.91V276.51C133.899 276.47 133.628 276.429 133.267 276.389C132.906 276.349 132.575 276.329 132.274 276.329C131.853 276.329 131.451 276.359 131.07 276.419C130.709 276.46 130.388 276.55 130.107 276.69C129.827 276.831 129.606 277.021 129.445 277.262C129.285 277.503 129.205 277.804 129.205 278.165C129.205 278.867 129.435 279.358 129.897 279.639C130.378 279.9 131.03 280.03 131.853 280.03ZM131.492 266.911C132.816 266.911 133.919 267.061 134.802 267.362C135.684 267.663 136.386 268.094 136.908 268.656C137.449 269.218 137.831 269.9 138.051 270.702C138.272 271.505 138.382 272.397 138.382 273.38V282.708C137.74 282.849 136.848 283.009 135.704 283.19C134.561 283.39 133.177 283.491 131.552 283.491C130.529 283.491 129.596 283.4 128.753 283.22C127.931 283.039 127.219 282.748 126.617 282.347C126.015 281.926 125.554 281.384 125.233 280.722C124.912 280.06 124.751 279.248 124.751 278.285C124.751 277.362 124.932 276.58 125.293 275.938C125.674 275.296 126.176 274.785 126.798 274.403C127.419 274.022 128.132 273.751 128.934 273.591C129.736 273.41 130.569 273.32 131.431 273.32C132.013 273.32 132.525 273.35 132.966 273.41C133.427 273.451 133.799 273.511 134.079 273.591V273.17C134.079 272.407 133.849 271.796 133.387 271.334C132.926 270.873 132.123 270.642 130.98 270.642C130.218 270.642 129.466 270.702 128.723 270.823C127.981 270.923 127.339 271.073 126.798 271.274L126.226 267.663C126.487 267.583 126.808 267.503 127.189 267.422C127.59 267.322 128.021 267.242 128.483 267.182C128.944 267.102 129.425 267.041 129.927 267.001C130.448 266.941 130.97 266.911 131.492 266.911Z" fill="white"/>
<path d="M150.771 275.126C150.771 276.51 151.082 277.623 151.704 278.466C152.326 279.308 153.249 279.729 154.473 279.729C154.874 279.729 155.245 279.719 155.586 279.699C155.927 279.659 156.208 279.619 156.428 279.579V271.424C156.148 271.244 155.776 271.093 155.315 270.973C154.874 270.853 154.422 270.793 153.961 270.793C151.835 270.793 150.771 272.237 150.771 275.126ZM160.912 282.648C160.511 282.768 160.049 282.889 159.528 283.009C159.006 283.11 158.454 283.2 157.873 283.28C157.311 283.36 156.729 283.42 156.127 283.461C155.546 283.521 154.984 283.551 154.442 283.551C153.139 283.551 151.975 283.36 150.952 282.979C149.929 282.598 149.066 282.056 148.364 281.354C147.662 280.632 147.12 279.77 146.739 278.766C146.378 277.743 146.198 276.6 146.198 275.336C146.198 274.052 146.358 272.899 146.679 271.876C147 270.833 147.461 269.95 148.063 269.228C148.665 268.506 149.397 267.954 150.26 267.573C151.143 267.192 152.146 267.001 153.269 267.001C153.891 267.001 154.442 267.061 154.924 267.182C155.425 267.302 155.927 267.473 156.428 267.693V260.532L160.912 259.81V282.648Z" fill="white"/>
<path d="M168.871 275.366C168.871 273.962 169.082 272.738 169.503 271.695C169.944 270.632 170.516 269.749 171.218 269.047C171.92 268.345 172.723 267.814 173.625 267.453C174.548 267.091 175.491 266.911 176.454 266.911C178.701 266.911 180.476 267.603 181.78 268.987C183.084 270.351 183.736 272.367 183.736 275.035C183.736 275.296 183.726 275.587 183.706 275.908C183.686 276.209 183.665 276.48 183.645 276.72H173.475C173.575 277.643 174.007 278.375 174.769 278.917C175.531 279.459 176.554 279.729 177.838 279.729C178.66 279.729 179.463 279.659 180.245 279.519C181.048 279.358 181.7 279.168 182.201 278.947L182.803 282.588C182.562 282.708 182.241 282.829 181.84 282.949C181.439 283.069 180.987 283.17 180.486 283.25C180.005 283.35 179.483 283.43 178.921 283.491C178.36 283.551 177.798 283.581 177.236 283.581C175.812 283.581 174.568 283.37 173.505 282.949C172.462 282.528 171.589 281.956 170.887 281.234C170.205 280.492 169.694 279.619 169.353 278.616C169.032 277.613 168.871 276.53 168.871 275.366ZM179.403 273.651C179.383 273.27 179.312 272.899 179.192 272.538C179.092 272.177 178.921 271.856 178.681 271.575C178.46 271.294 178.169 271.063 177.808 270.883C177.467 270.702 177.036 270.612 176.514 270.612C176.013 270.612 175.581 270.702 175.22 270.883C174.859 271.043 174.558 271.264 174.317 271.545C174.077 271.826 173.886 272.157 173.746 272.538C173.625 272.899 173.535 273.27 173.475 273.651H179.403Z" fill="white"/>
<path d="M201.248 271.304C200.847 271.204 200.375 271.104 199.833 271.003C199.292 270.883 198.71 270.823 198.088 270.823C197.807 270.823 197.466 270.853 197.065 270.913C196.684 270.953 196.393 271.003 196.193 271.063V283.16H191.709V268.175C192.512 267.894 193.454 267.633 194.538 267.392C195.641 267.132 196.865 267.001 198.209 267.001C198.449 267.001 198.74 267.021 199.081 267.061C199.422 267.081 199.763 267.122 200.104 267.182C200.445 267.222 200.786 267.282 201.127 267.362C201.468 267.422 201.759 267.503 202 267.603L201.248 271.304Z" fill="white"/>
</g>
<defs>
<clipPath id="clip0_338_1003">
<rect width="360" height="800" fill="white"/>
</clipPath>
</defs>
</svg>
