<svg width="28" height="28" viewBox="0 0 28 28" fill="none" xmlns="http://www.w3.org/2000/svg">
<path fill-rule="evenodd" clip-rule="evenodd" d="M4.54978 4.54975C6.58428 2.51526 9.73491 1.80832 14.043 1.80832C18.351 1.80832 21.5017 2.51526 23.5362 4.54975C25.5707 6.58424 26.2776 9.73488 26.2776 14.0429C26.2776 18.3511 25.5707 21.5017 23.5362 23.5362C21.5017 25.5706 18.351 26.2776 14.043 26.2776C9.73491 26.2776 6.58428 25.5706 4.54978 23.5362C2.51529 21.5017 1.80835 18.3511 1.80835 14.0429C1.80835 9.73488 2.51529 6.58424 4.54978 4.54975Z" fill="white"/>
<path fill-rule="evenodd" clip-rule="evenodd" d="M14.043 8.99805C14.5262 8.99805 14.918 9.3898 14.918 9.87305V18.2129C14.918 18.6962 14.5262 19.0879 14.043 19.0879C13.5597 19.0879 13.168 18.6962 13.168 18.2129V9.87305C13.168 9.3898 13.5597 8.99805 14.043 8.99805Z" fill="#0CAF82"/>
<path fill-rule="evenodd" clip-rule="evenodd" d="M8.99365 14.0429C8.99365 13.5597 9.38541 13.1679 9.86865 13.1679H18.2171C18.7003 13.1679 19.0921 13.5597 19.0921 14.0429C19.0921 14.5263 18.7003 14.9179 18.2171 14.9179H9.86865C9.38541 14.9179 8.99365 14.5263 8.99365 14.0429Z" fill="#0CAF82"/>
</svg>
