<svg width="28" height="28" viewBox="0 0 28 28" fill="none" xmlns="http://www.w3.org/2000/svg">
<path fill-rule="evenodd" clip-rule="evenodd" d="M19.6422 13.9999C19.6422 13.5166 19.2505 13.1249 18.7672 13.1249H9.23323C8.75 13.1249 8.35823 13.5166 8.35823 13.9999C8.35823 14.4831 8.75 14.8749 9.23323 14.8749H18.7672C19.2505 14.8749 19.6422 14.4831 19.6422 13.9999Z" fill="white"/>
<path fill-rule="evenodd" clip-rule="evenodd" d="M14.1121 17.646L14.1103 17.6447L14.1022 17.6392L14.0683 17.6162C14.0379 17.5956 13.9928 17.5646 13.9349 17.5244C13.8191 17.444 13.6525 17.327 13.4521 17.1817C13.0503 16.8905 12.5182 16.4903 11.9893 16.0496C11.4554 15.6049 10.9482 15.1381 10.582 14.7139C10.3987 14.5016 10.2684 14.3201 10.1879 14.1745C10.134 14.077 10.1164 14.0208 10.1109 14C10.1164 13.9792 10.134 13.9229 10.188 13.8251C10.2687 13.6793 10.399 13.4976 10.5823 13.2851C10.9485 12.8604 11.4559 12.393 11.9897 11.9477C12.5187 11.5064 13.0508 11.1056 13.4526 10.814C13.653 10.6685 13.8195 10.5513 13.9355 10.4708C13.9934 10.4305 14.0385 10.3995 14.0687 10.3789L14.1027 10.3558L14.1108 10.3503L14.1125 10.3492C14.1126 10.3491 14.1125 10.3492 14.1125 10.3492C14.5136 10.0797 14.6206 9.53596 14.3512 9.13483C14.0818 8.73366 13.5381 8.62687 13.137 8.8963L13.6248 9.62268C13.137 8.8963 13.1371 8.89623 13.137 8.8963L13.1325 8.89931L13.1217 8.90657L13.0823 8.93342C13.0482 8.95666 12.999 8.99044 12.9368 9.03364C12.8126 9.12001 12.6361 9.24429 12.4247 9.3977C12.0031 9.70367 11.4375 10.1294 10.8687 10.604C10.3047 11.0744 9.71414 11.6122 9.25704 12.1421C9.02872 12.4069 8.81592 12.69 8.65632 12.9787C8.50267 13.2567 8.35847 13.6109 8.35847 14C8.35847 14.3892 8.50279 14.7433 8.65644 15.0213C8.81604 15.3101 9.02884 15.5929 9.25727 15.8575C9.71449 16.387 10.3051 16.9241 10.869 17.3941C11.4379 17.8681 12.0036 18.2932 12.4252 18.5988C12.6365 18.752 12.813 18.8761 12.9374 18.9623C12.9996 19.0055 13.0487 19.0392 13.0828 19.0623L13.1223 19.0891L13.1331 19.0964L13.1373 19.0993C13.1374 19.0994 13.1375 19.0994 13.6248 18.3727L13.1373 19.0993C13.5387 19.3684 14.0824 19.2613 14.3515 18.86C14.6207 18.4587 14.5135 17.9151 14.1121 17.646Z" fill="white"/>
<path fill-rule="evenodd" clip-rule="evenodd" d="M23.0495 23.0494C24.9952 21.1036 25.6666 18.095 25.6666 13.9999C25.6666 9.90477 24.9952 6.89614 23.0495 4.9504C21.1037 3.00466 18.0951 2.33322 14 2.33322C9.90484 2.33322 6.89624 3.00466 4.95048 4.9504C3.00471 6.89614 2.33329 9.90477 2.33329 13.9999C2.33329 18.095 3.00471 21.1036 4.95048 23.0494C6.89624 24.9951 9.90484 25.6666 14 25.6666C18.0951 25.6666 21.1037 24.9951 23.0495 23.0494ZM21.812 21.8119C20.3852 23.2387 17.998 23.9166 14 23.9166C10.0019 23.9166 7.61468 23.2387 6.18796 21.8119C4.76113 20.3852 4.08329 17.9979 4.08329 13.9999C4.08329 10.0018 4.76113 7.61464 6.18796 6.18784C7.61468 4.76103 10.0019 4.08322 14 4.08322C17.998 4.08322 20.3852 4.76103 21.812 6.18784C23.2388 7.61464 23.9166 10.0018 23.9166 13.9999C23.9166 17.9979 23.2388 20.3852 21.812 21.8119Z" fill="white"/>
</svg>
