<svg width="26" height="26" viewBox="0 0 26 26" fill="none" xmlns="http://www.w3.org/2000/svg">
<g clip-path="url(#clip0_324_1825)">
<mask id="mask0_324_1825" style="mask-type:luminance" maskUnits="userSpaceOnUse" x="0" y="0" width="26" height="26">
<path d="M0 0H26V26H0V0Z" fill="white"/>
</mask>
<g mask="url(#mask0_324_1825)">
<path fill-rule="evenodd" clip-rule="evenodd" d="M25.6827 5.73395C26.1057 6.15703 26.1057 6.84295 25.6827 7.26603L15.391 17.5577C14.968 17.9807 14.282 17.9807 13.859 17.5577L9.20833 12.907L1.84937 20.266C1.4263 20.6891 0.740368 20.6891 0.317301 20.266C-0.105767 19.843 -0.105767 19.157 0.317301 18.734L8.4423 10.609C8.86537 10.1859 9.55129 10.1859 9.97437 10.609L14.625 15.2596L24.1506 5.73395C24.5737 5.31089 25.2596 5.31089 25.6827 5.73395Z" fill="white"/>
<path fill-rule="evenodd" clip-rule="evenodd" d="M17.3335 6.49999C17.3335 5.90169 17.8185 5.41666 18.4168 5.41666H24.9168C25.5152 5.41666 26.0002 5.90169 26.0002 6.49999V13C26.0002 13.5983 25.5152 14.0833 24.9168 14.0833C24.3185 14.0833 23.8335 13.5983 23.8335 13V7.58332H18.4168C17.8185 7.58332 17.3335 7.09829 17.3335 6.49999Z" fill="white"/>
</g>
</g>
<defs>
<clipPath id="clip0_324_1825">
<rect width="26" height="26" fill="white"/>
</clipPath>
</defs>
</svg>
