<svg width="28" height="28" viewBox="0 0 28 28" fill="none" xmlns="http://www.w3.org/2000/svg">
<path fill-rule="evenodd" clip-rule="evenodd" d="M14.6826 22.7591C14.6826 22.2759 15.0744 21.8841 15.5576 21.8841H22.9975C23.4807 21.8841 23.8725 22.2759 23.8725 22.7591C23.8725 23.2423 23.4807 23.6341 22.9975 23.6341H15.5576C15.0744 23.6341 14.6826 23.2423 14.6826 22.7591Z" fill="white"/>
<path fill-rule="evenodd" clip-rule="evenodd" d="M13.0665 5.85163C14.5326 3.8983 17.3045 3.50291 19.259 4.96871C21.2126 6.43502 21.6066 9.20861 20.1408 11.1616L19.441 10.6364L18.7411 10.1111C19.6273 8.93048 19.3888 7.2542 18.2087 6.36852C17.0272 5.48254 15.352 5.72186 14.4661 6.90212L6.58889 17.3962C5.77582 18.48 5.73307 19.7104 5.93257 20.7474C6.03172 21.2627 6.1875 21.7079 6.31904 22.0242C6.33543 22.0636 6.35138 22.1009 6.36671 22.1359C6.40599 22.1406 6.4478 22.1454 6.49194 22.15C6.83589 22.1856 7.31121 22.208 7.83739 22.1571C8.89901 22.0544 10.0668 21.6678 10.8637 20.6055C11.864 19.2732 13.8336 16.6494 15.5529 14.359L18.7411 10.1111L19.441 10.6364L20.1408 11.1616L16.9524 15.4094C15.2332 17.7 13.2639 20.3236 12.2633 21.6559C11.0606 23.2591 9.33633 23.7702 8.0058 23.8989C7.33585 23.9637 6.74002 23.935 6.31186 23.8908C6.09677 23.8685 5.92126 23.842 5.79657 23.8204C5.73416 23.8096 5.68427 23.8 5.64829 23.7926L5.60487 23.7835L5.59125 23.7806L5.58653 23.7796L5.58468 23.7791C5.58433 23.779 5.5832 23.7788 5.77931 22.926C5.02003 23.361 5.01985 23.3606 5.01967 23.3603L5.01831 23.3579L5.0159 23.3536L5.00904 23.3414L4.98772 23.3024C4.97031 23.27 4.9467 23.2251 4.91838 23.1685C4.86182 23.0555 4.78607 22.8955 4.70322 22.6962C4.53832 22.2998 4.34111 21.7383 4.21408 21.0779C3.9612 19.7636 3.97328 17.9664 5.18904 16.3459L13.0665 5.85163ZM5.77931 22.926L5.01967 23.3603C5.14093 23.572 5.34544 23.7242 5.5832 23.7788L5.77931 22.926Z" fill="white"/>
<path fill-rule="evenodd" clip-rule="evenodd" d="M11.5551 7.88801C11.8452 7.50153 12.3938 7.4234 12.7802 7.7135L18.4548 11.973C18.8414 12.263 18.9195 12.8116 18.6294 13.198C18.3393 13.5845 17.7908 13.6627 17.4044 13.3725L11.7297 9.11308C11.3432 8.82298 11.265 8.27449 11.5551 7.88801Z" fill="white"/>
</svg>
