<svg width="20" height="21" viewBox="0 0 20 21" fill="none" xmlns="http://www.w3.org/2000/svg">
<path d="M10 17.046C8.65923 17.037 7.34311 16.6848 6.177 16.023C5.12364 15.4251 4.17042 14.6659 3.352 13.773C2.43059 12.788 1.64006 11.6883 1 10.501C2.01488 8.60243 3.42692 6.94481 5.14 5.641L8.265 8.766C8.02171 8.99019 7.82624 9.26124 7.69034 9.56287C7.55444 9.8645 7.4809 10.1905 7.47414 10.5212C7.46739 10.852 7.52756 11.1807 7.65104 11.4877C7.77451 11.7946 7.95875 12.0734 8.19269 12.3073C8.42662 12.5413 8.70542 12.7255 9.01235 12.849C9.31927 12.9724 9.64799 13.0326 9.97875 13.0259C10.3095 13.0191 10.6355 12.9456 10.9371 12.8097C11.2388 12.6738 11.5098 12.4783 11.734 12.235L14.86 15.361C13.4633 16.4307 11.759 17.0215 10 17.046ZM17.232 13.111L8.282 4.155C8.84116 4.02341 9.41356 3.95631 9.988 3.955L10 3.955C11.3408 3.964 12.6569 4.31619 13.823 4.978C14.8764 5.57591 15.8296 6.33511 16.648 7.228C17.5696 8.21325 18.3601 9.31334 19 10.501C18.5031 11.4296 17.9109 12.304 17.233 13.11L17.232 13.111Z" stroke="#88909F" stroke-width="1.68" stroke-miterlimit="10" stroke-linecap="round" stroke-linejoin="round"/>
<path d="M1 1.5L19 19.5" stroke="#88909F" stroke-width="1.68" stroke-miterlimit="10" stroke-linecap="round" stroke-linejoin="round"/>
</svg>
