<svg width="20" height="15" viewBox="0 0 20 15" fill="none" xmlns="http://www.w3.org/2000/svg">
<path d="M10 14.046C8.65923 14.037 7.34311 13.6848 6.177 13.023C5.12364 12.4251 4.17042 11.6659 3.352 10.773C2.43059 9.78799 1.64006 8.68825 1 7.501C2.01488 5.60243 3.42692 3.94481 5.14 2.641L8.265 5.766C8.02171 5.99019 7.82624 6.26124 7.69034 6.56287C7.55444 6.8645 7.4809 7.19048 7.47414 7.52125C7.46739 7.85201 7.52756 8.18073 7.65104 8.48765C7.77451 8.79458 7.95875 9.07338 8.19269 9.30732C8.42662 9.54125 8.70542 9.72549 9.01235 9.84897C9.31927 9.97244 9.64799 10.0326 9.97875 10.0259C10.3095 10.0191 10.6355 9.94557 10.9371 9.80966C11.2388 9.67376 11.5098 9.47829 11.734 9.235L14.86 12.361C13.4633 13.4307 11.759 14.0215 10 14.046ZM17.232 10.111L8.282 1.155C8.84116 1.02341 9.41356 0.956308 9.988 0.955002L10 0.955002C11.3408 0.964001 12.6569 1.31619 13.823 1.978C14.8764 2.57591 15.8296 3.33511 16.648 4.228C17.5696 5.21325 18.3601 6.31334 19 7.501C18.5031 8.4296 17.9109 9.30397 17.233 10.11L17.232 10.111Z" stroke="#88909F" stroke-width="1.68" stroke-miterlimit="10" stroke-linecap="round" stroke-linejoin="round"/>
</svg>
