<svg width="24" height="24" viewBox="0 0 24 24" fill="none" xmlns="http://www.w3.org/2000/svg">
<path fill-rule="evenodd" clip-rule="evenodd" d="M7.70898 12.0368C7.70898 11.6226 8.04477 11.2868 8.45898 11.2868H15.6148C16.029 11.2868 16.3648 11.6226 16.3648 12.0368C16.3648 12.4511 16.029 12.7868 15.6148 12.7868H8.45898C8.04477 12.7868 7.70898 12.4511 7.70898 12.0368Z" fill="#FB3B54"/>
<path fill-rule="evenodd" clip-rule="evenodd" d="M4.96051 4.96046C3.66147 6.25951 3.05005 8.42739 3.05005 12.0368C3.05005 15.6463 3.66147 17.8142 4.96051 19.1132C6.25956 20.4123 8.42744 21.0237 12.0369 21.0237C15.6463 21.0237 17.8142 20.4123 19.1133 19.1132C20.4123 17.8142 21.0237 15.6463 21.0237 12.0368C21.0237 8.42739 20.4123 6.25951 19.1133 4.96046C17.8142 3.66142 15.6463 3.05 12.0369 3.05C8.42744 3.05 6.25956 3.66142 4.96051 4.96046ZM3.89985 3.8998C5.6437 2.15595 8.34424 1.55 12.0369 1.55C15.7295 1.55 18.4301 2.15595 20.1739 3.8998C21.9178 5.64365 22.5237 8.34419 22.5237 12.0368C22.5237 15.7295 21.9178 18.43 20.1739 20.1739C18.4301 21.9177 15.7295 22.5237 12.0369 22.5237C8.34424 22.5237 5.6437 21.9177 3.89985 20.1739C2.156 18.43 1.55005 15.7295 1.55005 12.0368C1.55005 8.34419 2.156 5.64365 3.89985 3.8998Z" fill="#FB3B54"/>
</svg>
