<svg width="26" height="26" viewBox="0 0 26 26" fill="none" xmlns="http://www.w3.org/2000/svg">
<path d="M6.29289 6.2929C6.68342 5.90237 7.31658 5.90237 7.70711 6.2929L13 11.5858L18.2929 6.2929C18.6834 5.90237 19.3166 5.90237 19.7071 6.2929C20.0976 6.68342 20.0976 7.31659 19.7071 7.70711L14.4142 13L19.7071 18.2929C20.0976 18.6834 20.0976 19.3166 19.7071 19.7071C19.3166 20.0976 18.6834 20.0976 18.2929 19.7071L13 14.4142L7.70711 19.7071C7.31658 20.0976 6.68342 20.0976 6.29289 19.7071C5.90237 19.3166 5.90237 18.6834 6.29289 18.2929L11.5858 13L6.29289 7.70711C5.90237 7.31659 5.90237 6.68342 6.29289 6.2929Z" fill="black" fill-opacity="0.3"/>
</svg>
