<svg width="37" height="36" viewBox="0 0 37 36" fill="none" xmlns="http://www.w3.org/2000/svg">
<path fill-rule="evenodd" clip-rule="evenodd" d="M5.14201 4.64201C7.14371 2.6403 10.139 1.875 14 1.875H23C26.861 1.875 29.8564 2.6403 31.858 4.64201C33.8597 6.64371 34.625 9.63905 34.625 13.5V22.5C34.625 26.361 33.8597 29.3564 31.858 31.358C29.8564 33.3597 26.861 34.125 23 34.125H14C10.139 34.125 7.14371 33.3597 5.14201 31.358C3.1403 29.3564 2.375 26.361 2.375 22.5V13.5C2.375 9.63905 3.1403 6.64371 5.14201 4.64201Z" fill="#18335B"/>
<path fill-rule="evenodd" clip-rule="evenodd" d="M11.3174 15.0719C11.9387 15.0719 12.4424 15.5756 12.4424 16.1969V20.9969C12.4424 21.6182 11.9387 22.1219 11.3174 22.1219C10.6961 22.1219 10.1924 21.6182 10.1924 20.9969V16.1969C10.1924 15.5756 10.6961 15.0719 11.3174 15.0719Z" fill="#0CAF82"/>
<path fill-rule="evenodd" clip-rule="evenodd" d="M18.8174 12.4615C19.4387 12.4615 19.9424 12.9652 19.9424 13.5865V23.6066C19.9424 24.2279 19.4387 24.7316 18.8174 24.7316C18.1961 24.7316 17.6924 24.2279 17.6924 23.6066V13.5865C17.6924 12.9652 18.1961 12.4615 18.8174 12.4615Z" fill="#0CAF82"/>
<path fill-rule="evenodd" clip-rule="evenodd" d="M26.3174 15.0719C26.9387 15.0719 27.4424 15.5756 27.4424 16.1969V20.9969C27.4424 21.6182 26.9387 22.1219 26.3174 22.1219C25.6961 22.1219 25.1924 21.6182 25.1924 20.9969V16.1969C25.1924 15.5756 25.6961 15.0719 26.3174 15.0719Z" fill="#0CAF82"/>
</svg>
