<svg width="37" height="36" viewBox="0 0 37 36" fill="none" xmlns="http://www.w3.org/2000/svg">
<path fill-rule="evenodd" clip-rule="evenodd" d="M5.14201 4.64201C7.14371 2.6403 10.139 1.875 14 1.875H23C26.861 1.875 29.8564 2.6403 31.858 4.64201C33.8597 6.64371 34.625 9.63905 34.625 13.5V22.5C34.625 26.361 33.8597 29.3564 31.858 31.358C29.8564 33.3597 26.861 34.125 23 34.125H14C10.139 34.125 7.14371 33.3597 5.14201 31.358C3.1403 29.3564 2.375 26.361 2.375 22.5V13.5C2.375 9.63905 3.1403 6.64371 5.14201 4.64201Z" fill="#18335B"/>
<path fill-rule="evenodd" clip-rule="evenodd" d="M24.506 14.3679L20.691 11.2135C19.4058 10.151 17.5943 10.151 16.3092 11.2135L12.4941 14.3679C11.8067 14.9362 11.4167 15.7979 11.4167 16.697V22.369C11.4167 23.5505 12.328 24.5833 13.5417 24.5833H14.9584C16.132 24.5833 17.0834 23.632 17.0834 22.4583V20.1101C17.0834 19.6281 17.4407 19.3124 17.7917 19.3124H19.2084C19.5595 19.3124 19.9167 19.6281 19.9167 20.1101V22.4583C19.9167 23.632 20.8681 24.5833 22.0417 24.5833H23.4584C24.6722 24.5833 25.5834 23.5505 25.5834 22.369V16.697C25.5834 15.7979 25.1934 14.9362 24.506 14.3679Z" fill="white"/>
</svg>
