<svg width="37" height="36" viewBox="0 0 37 36" fill="none" xmlns="http://www.w3.org/2000/svg">
<path fill-rule="evenodd" clip-rule="evenodd" d="M5.14201 4.64201C7.14371 2.6403 10.139 1.875 14 1.875H23C26.861 1.875 29.8564 2.6403 31.858 4.64201C33.8597 6.64371 34.625 9.63905 34.625 13.5V22.5C34.625 26.361 33.8597 29.3564 31.858 31.358C29.8564 33.3597 26.861 34.125 23 34.125H14C10.139 34.125 7.14371 33.3597 5.14201 31.358C3.1403 29.3564 2.375 26.361 2.375 22.5V13.5C2.375 9.63905 3.1403 6.64371 5.14201 4.64201Z" fill="#18335B"/>
<path d="M26.305 17.0019C26.7708 16.5658 26.9284 15.9266 26.7124 15.3496C26.5096 14.7706 25.9642 14.3481 25.3072 14.2608L21.74 13.7583C21.7063 13.7493 21.6788 13.7269 21.6652 13.6973L20.102 10.6517C19.8218 10.069 19.1925 9.69271 18.4972 9.69234C17.8101 9.68974 17.1853 10.0563 16.9007 10.6289L15.3375 13.6745C15.3202 13.7045 15.2901 13.7266 15.2543 13.7354L11.6955 14.2608C11.0377 14.3505 10.4911 14.7716 10.2819 15.3496C10.074 15.9283 10.2342 16.5649 10.6977 17.0019L13.3252 19.4764C13.3405 19.5079 13.3405 19.5439 13.3252 19.5754L12.7099 23.0322C12.5932 23.6467 12.8735 24.2677 13.4299 24.6275C13.9863 24.9873 14.7192 25.0213 15.3125 24.7149L18.414 23.1388C18.4453 23.1239 18.4825 23.1239 18.5138 23.1388L21.6153 24.7149C22.2092 25.0146 22.9377 24.9775 23.4917 24.6194C24.0455 24.2613 24.3276 23.6449 24.2179 23.0322L23.6442 19.5906C23.6264 19.5624 23.6264 19.5275 23.6442 19.4993L26.305 17.0019Z" fill="white"/>
</svg>
