<svg width="36" height="36" viewBox="0 0 36 36" fill="none" xmlns="http://www.w3.org/2000/svg">
<path fill-rule="evenodd" clip-rule="evenodd" d="M4.64201 4.64201C6.64371 2.6403 9.63905 1.875 13.5 1.875H22.5C26.361 1.875 29.3564 2.6403 31.358 4.64201C33.3597 6.64371 34.125 9.63905 34.125 13.5V22.5C34.125 26.361 33.3597 29.3564 31.358 31.358C29.3564 33.3597 26.361 34.125 22.5 34.125H13.5C9.63905 34.125 6.64371 33.3597 4.64201 31.358C2.6403 29.3564 1.875 26.361 1.875 22.5V13.5C1.875 9.63905 2.6403 6.64371 4.64201 4.64201Z" fill="#18335B"/>
<path fill-rule="evenodd" clip-rule="evenodd" d="M11.8191 22.3435C12.3593 22.3435 12.7973 22.7815 12.7973 23.3217V26.0217C12.7973 26.5619 12.3593 26.9999 11.8191 26.9999C11.2788 26.9999 10.8408 26.5619 10.8408 26.0217V23.3217C10.8408 22.7815 11.2788 22.3435 11.8191 22.3435Z" fill="#0CAF82"/>
<path fill-rule="evenodd" clip-rule="evenodd" d="M18.4973 19.6432C19.0375 19.6432 19.4755 20.0811 19.4755 20.6214V26.0212C19.4755 26.5615 19.0375 26.9995 18.4973 26.9995C17.957 26.9995 17.519 26.5615 17.519 26.0212V20.6214C17.519 20.0811 17.957 19.6432 18.4973 19.6432Z" fill="#0CAF82"/>
<path fill-rule="evenodd" clip-rule="evenodd" d="M25.1755 16.9308C25.7157 16.9308 26.1537 17.3687 26.1537 17.909V26.0218C26.1537 26.562 25.7157 27 25.1755 27C24.6353 27 24.1973 26.562 24.1973 26.0218V17.909C24.1973 17.3687 24.6353 16.9308 25.1755 16.9308Z" fill="#0CAF82"/>
<path fill-rule="evenodd" clip-rule="evenodd" d="M25.8097 9.23398C26.221 9.58431 26.2704 10.2017 25.9201 10.613L25.3187 11.319C21.86 15.3609 17.2219 18.2221 12.0559 19.5101C11.5317 19.6408 11.0008 19.3219 10.8701 18.7977C10.7394 18.2735 11.0584 17.7425 11.5826 17.6118C16.3552 16.4218 20.6383 13.7791 23.8316 10.0477C23.8314 10.0479 23.8317 10.0474 23.8316 10.0477L24.4307 9.34429C24.781 8.93302 25.3985 8.88364 25.8097 9.23398Z" fill="#0CAF82"/>
<path fill-rule="evenodd" clip-rule="evenodd" d="M20.3755 9.97863C20.3755 9.43836 20.8135 9.0004 21.3537 9.0004H25.1753C25.7157 9.0004 26.1536 9.43836 26.1536 9.97863V13.7872C26.1536 14.3275 25.7157 14.7654 25.1753 14.7654C24.6351 14.7654 24.1971 14.3275 24.1971 13.7872V10.9569H21.3537C20.8135 10.9569 20.3755 10.5189 20.3755 9.97863Z" fill="#0CAF82"/>
</svg>
