<svg width="37" height="36" viewBox="0 0 37 36" fill="none" xmlns="http://www.w3.org/2000/svg">
<path fill-rule="evenodd" clip-rule="evenodd" d="M4.89201 4.64201C6.89371 2.6403 9.88905 1.875 13.75 1.875H22.75C26.611 1.875 29.6064 2.6403 31.608 4.64201C33.6097 6.64371 34.375 9.63905 34.375 13.5V22.5C34.375 26.361 33.6097 29.3564 31.608 31.358C29.6064 33.3597 26.611 34.125 22.75 34.125H13.75C9.88905 34.125 6.89371 33.3597 4.89201 31.358C2.8903 29.3564 2.125 26.361 2.125 22.5V13.5C2.125 9.63905 2.8903 6.64371 4.89201 4.64201Z" fill="#18335B"/>
<path d="M10.9965 22.6935C10.6486 22.3456 10.6486 21.7817 10.9965 21.4339L14.5589 17.8714C14.9068 17.5236 15.4707 17.5236 15.8185 17.8714C16.1663 18.2192 16.1663 18.7832 15.8185 19.131L13.7764 21.1731H24.095C24.5869 21.1731 24.9856 21.5718 24.9856 22.0637C24.9856 22.5556 24.5869 22.9543 24.095 22.9543H13.7764L15.8185 24.9964C16.1663 25.3442 16.1663 25.9081 15.8185 26.256C15.4707 26.6038 14.9068 26.6038 14.5589 26.256L10.9965 22.6935ZM21.9448 14.0481H11.6262C11.1343 14.0481 10.7356 13.6493 10.7356 13.1574C10.7356 12.6655 11.1343 12.2668 11.6262 12.2668H21.9448L19.9027 10.2247C19.5549 9.87691 19.5549 9.31297 19.9027 8.96518C20.2505 8.61739 20.8144 8.61739 21.1622 8.96518L24.7247 12.5277C24.8917 12.6947 24.9856 12.9212 24.9856 13.1574C24.9856 13.3936 24.8917 13.6202 24.7247 13.7872L21.1622 17.3497C20.8144 17.6975 20.2505 17.6975 19.9027 17.3497C19.5549 17.0019 19.5549 16.438 19.9027 16.0902L21.9448 14.0481Z" fill="white"/>
</svg>
