<svg width="36" height="36" viewBox="0 0 36 36" fill="none" xmlns="http://www.w3.org/2000/svg">
<path fill-rule="evenodd" clip-rule="evenodd" d="M4.64201 4.64201C6.64371 2.6403 9.63905 1.875 13.5 1.875H22.5C26.361 1.875 29.3564 2.6403 31.358 4.64201C33.3597 6.64371 34.125 9.63905 34.125 13.5V22.5C34.125 26.361 33.3597 29.3564 31.358 31.358C29.3564 33.3597 26.361 34.125 22.5 34.125H13.5C9.63905 34.125 6.64371 33.3597 4.64201 31.358C2.6403 29.3564 1.875 26.361 1.875 22.5V13.5C1.875 9.63905 2.6403 6.64371 4.64201 4.64201Z" fill="#18335B"/>
<path fill-rule="evenodd" clip-rule="evenodd" d="M10.8174 15.0719C11.4387 15.0719 11.9424 15.5756 11.9424 16.1969V20.9969C11.9424 21.6182 11.4387 22.1219 10.8174 22.1219C10.1961 22.1219 9.69238 21.6182 9.69238 20.9969V16.1969C9.69238 15.5756 10.1961 15.0719 10.8174 15.0719Z" fill="white"/>
<path fill-rule="evenodd" clip-rule="evenodd" d="M18.3174 12.4615C18.9387 12.4615 19.4424 12.9652 19.4424 13.5865V23.6066C19.4424 24.2279 18.9387 24.7316 18.3174 24.7316C17.6961 24.7316 17.1924 24.2279 17.1924 23.6066V13.5865C17.1924 12.9652 17.6961 12.4615 18.3174 12.4615Z" fill="white"/>
<path fill-rule="evenodd" clip-rule="evenodd" d="M25.8174 15.0719C26.4387 15.0719 26.9424 15.5756 26.9424 16.1969V20.9969C26.9424 21.6182 26.4387 22.1219 25.8174 22.1219C25.1961 22.1219 24.6924 21.6182 24.6924 20.9969V16.1969C24.6924 15.5756 25.1961 15.0719 25.8174 15.0719Z" fill="white"/>
</svg>
