<svg width="37" height="36" viewBox="0 0 37 36" fill="none" xmlns="http://www.w3.org/2000/svg">
<path fill-rule="evenodd" clip-rule="evenodd" d="M5.14201 4.64201C7.14371 2.6403 10.139 1.875 14 1.875H23C26.861 1.875 29.8564 2.6403 31.858 4.64201C33.8597 6.64371 34.625 9.63905 34.625 13.5V22.5C34.625 26.361 33.8597 29.3564 31.858 31.358C29.8564 33.3597 26.861 34.125 23 34.125H14C10.139 34.125 7.14371 33.3597 5.14201 31.358C3.1403 29.3564 2.375 26.361 2.375 22.5V13.5C2.375 9.63905 3.1403 6.64371 5.14201 4.64201Z" fill="#18335B"/>
<path d="M11.2464 22.6935C10.8986 22.3456 10.8986 21.7817 11.2464 21.4339L14.8089 17.8714C15.1567 17.5236 15.7206 17.5236 16.0685 17.8714C16.4162 18.2192 16.4162 18.7832 16.0685 19.131L14.0263 21.1731H24.3449C24.8368 21.1731 25.2356 21.5718 25.2356 22.0637C25.2356 22.5556 24.8368 22.9543 24.3449 22.9543H14.0263L16.0685 24.9964C16.4162 25.3442 16.4162 25.9081 16.0685 26.256C15.7206 26.6038 15.1567 26.6038 14.8089 26.256L11.2464 22.6935ZM22.1948 14.0481H11.8762C11.3843 14.0481 10.9856 13.6493 10.9856 13.1574C10.9856 12.6655 11.3843 12.2668 11.8762 12.2668H22.1948L20.1527 10.2247C19.8049 9.87691 19.8049 9.31297 20.1527 8.96518C20.5005 8.61739 21.0644 8.61739 21.4122 8.96518L24.9747 12.5277C25.1417 12.6947 25.2356 12.9212 25.2356 13.1574C25.2356 13.3936 25.1417 13.6202 24.9747 13.7872L21.4122 17.3497C21.0644 17.6975 20.5005 17.6975 20.1527 17.3497C19.8049 17.0019 19.8049 16.438 20.1527 16.0902L22.1948 14.0481Z" fill="#0CAF82"/>
</svg>
