<svg width="37" height="36" viewBox="0 0 37 36" fill="none" xmlns="http://www.w3.org/2000/svg">
<path fill-rule="evenodd" clip-rule="evenodd" d="M4.89201 4.64201C6.89371 2.6403 9.88905 1.875 13.75 1.875H22.75C26.611 1.875 29.6064 2.6403 31.608 4.64201C33.6097 6.64371 34.375 9.63905 34.375 13.5V22.5C34.375 26.361 33.6097 29.3564 31.608 31.358C29.6064 33.3597 26.611 34.125 22.75 34.125H13.75C9.88905 34.125 6.89371 33.3597 4.89201 31.358C2.8903 29.3564 2.125 26.361 2.125 22.5V13.5C2.125 9.63905 2.8903 6.64371 4.89201 4.64201Z" fill="#18335B"/>
<path d="M26.055 17.0019C26.5208 16.5658 26.6785 15.9266 26.4625 15.3496C26.2597 14.7706 25.7143 14.3481 25.0572 14.2608L21.4901 13.7583C21.4564 13.7493 21.4289 13.7269 21.4153 13.6973L19.852 10.6517C19.5719 10.069 18.9425 9.69271 18.2472 9.69234C17.5602 9.68974 16.9354 10.0563 16.6508 10.6289L15.0875 13.6745C15.0703 13.7045 15.0401 13.7266 15.0044 13.7354L11.4456 14.2608C10.7878 14.3505 10.2412 14.7716 10.032 15.3496C9.82405 15.9283 9.98423 16.5649 10.4478 17.0019L13.0753 19.4764C13.0906 19.5079 13.0906 19.5439 13.0753 19.5754L12.46 23.0322C12.3432 23.6467 12.6235 24.2677 13.1799 24.6275C13.7363 24.9873 14.4693 25.0213 15.0626 24.7149L18.1641 23.1388C18.1953 23.1239 18.2326 23.1239 18.2639 23.1388L21.3654 24.7149C21.9592 25.0146 22.6878 24.9775 23.2417 24.6194C23.7956 24.2613 24.0776 23.6449 23.968 23.0322L23.3942 19.5906C23.3764 19.5624 23.3764 19.5275 23.3942 19.4993L26.055 17.0019Z" fill="#0CAF82"/>
</svg>
