<svg width="32" height="32" viewBox="0 0 32 32" fill="none" xmlns="http://www.w3.org/2000/svg">
<path fill-rule="evenodd" clip-rule="evenodd" d="M4.45956 4.45956C6.23885 2.68027 8.90137 2 12.3333 2H20.3333C23.7653 2 26.4279 2.68027 28.2071 4.45956C29.9864 6.23885 30.6667 8.90137 30.6667 12.3333V20.3333C30.6667 23.7653 29.9864 26.4279 28.2071 28.2071C26.4279 29.9864 23.7653 30.6667 20.3333 30.6667H12.3333C8.90137 30.6667 6.23885 29.9864 4.45956 28.2071C2.68027 26.4279 2 23.7653 2 20.3333V12.3333C2 8.90137 2.68027 6.23885 4.45956 4.45956Z" fill="#FB3B54"/>
<path d="M15.2666 14.8333C15.2666 15.0424 15.337 15.2283 15.471 15.3623C15.605 15.4963 15.7909 15.5667 16 15.5667C16.209 15.5667 16.3949 15.4963 16.5289 15.3623C16.6629 15.2283 16.7333 15.0424 16.7333 14.8333V10.75C16.7333 10.5409 16.6629 10.355 16.5289 10.221C16.3949 10.087 16.209 10.0167 16 10.0167C15.7909 10.0167 15.605 10.087 15.471 10.221C15.337 10.355 15.2666 10.5409 15.2666 10.75V14.8333Z" fill="white" stroke="white" stroke-width="0.3"/>
<path d="M18.6994 11.9031L18.6904 11.8979L18.6807 11.8941C18.3431 11.759 17.908 11.8169 17.6836 12.183C17.4435 12.512 17.6286 12.9514 17.9635 13.1531C19.1478 13.8866 19.9333 15.1817 19.9333 16.5833C19.9333 18.7755 18.1922 20.5167 16 20.5167C13.8078 20.5167 12.0667 18.7755 12.0667 16.5833C12.0667 15.1817 12.8522 13.8866 14.0365 13.1531C14.3714 12.9514 14.5565 12.512 14.3164 12.183C14.1045 11.8368 13.6704 11.6823 13.2993 11.9039C11.619 12.8646 10.6 14.6644 10.6 16.5833C10.6 19.5828 13.0005 21.9833 16 21.9833C18.9995 21.9833 21.4 19.5828 21.4 16.5833C21.4 14.6639 20.3804 12.8637 18.6994 11.9031Z" fill="white" stroke="white" stroke-width="0.3"/>
</svg>
