<svg width="28" height="28" viewBox="0 0 28 28" fill="none" xmlns="http://www.w3.org/2000/svg">
<g clip-path="url(#clip0_324_866)">
<mask id="mask0_324_866" style="mask-type:luminance" maskUnits="userSpaceOnUse" x="0" y="0" width="28" height="28">
<path d="M0 0H28V28H0V0Z" fill="white"/>
</mask>
<g mask="url(#mask0_324_866)">
<path fill-rule="evenodd" clip-rule="evenodd" d="M5.83333 4.95834C5.02791 4.95834 4.375 5.61126 4.375 6.41668C4.375 7.2221 5.02791 7.87501 5.83333 7.87501H22.1667C22.9721 7.87501 23.625 7.2221 23.625 6.41668C23.625 5.61126 22.9721 4.95834 22.1667 4.95834H5.83333ZM4.375 14C4.375 13.1945 5.02791 12.5417 5.83333 12.5417H22.1667C22.9721 12.5417 23.625 13.1945 23.625 14C23.625 14.8055 22.9721 15.4583 22.1667 15.4583H5.83333C5.02791 15.4583 4.375 14.8055 4.375 14ZM4.375 21.5833C4.375 20.7779 5.02791 20.125 5.83333 20.125H22.1667C22.9721 20.125 23.625 20.7779 23.625 21.5833C23.625 22.3888 22.9721 23.0417 22.1667 23.0417H5.83333C5.02791 23.0417 4.375 22.3888 4.375 21.5833Z" fill="white"/>
</g>
</g>
<defs>
<clipPath id="clip0_324_866">
<rect width="28" height="28" fill="white"/>
</clipPath>
</defs>
</svg>
