<svg width="32" height="32" viewBox="0 0 32 32" fill="none" xmlns="http://www.w3.org/2000/svg">
<path fill-rule="evenodd" clip-rule="evenodd" d="M4.12619 4.12631C5.90548 2.34701 8.568 1.66675 12 1.66675H20C23.432 1.66675 26.0945 2.34701 27.8737 4.12631C29.653 5.9056 30.3333 8.56812 30.3333 12.0001V20.0001C30.3333 23.4321 29.653 26.0946 27.8737 27.8738C26.0945 29.6532 23.432 30.3334 20 30.3334H12C8.568 30.3334 5.90548 29.6532 4.12619 27.8738C2.34689 26.0946 1.66663 23.4321 1.66663 20.0001V12.0001C1.66663 8.56812 2.34689 5.9056 4.12619 4.12631Z" fill="#18335B"/>
<path d="M19.9955 17.9495C19.1271 17.9495 18.342 17.8201 17.6403 17.5614C16.9385 17.2982 16.3376 16.9232 15.8376 16.4364C15.342 15.9451 14.9604 15.353 14.6929 14.66C14.4297 13.9627 14.2982 13.1798 14.2982 12.3114C14.2982 12.0614 14.3157 11.7938 14.3508 11.5087C14.3859 11.2193 14.4341 10.9429 14.4955 10.6798C14.5569 10.4122 14.6293 10.1885 14.7126 10.0087C14.7477 9.92539 14.7718 9.85302 14.785 9.79162C14.8025 9.73022 14.8113 9.67758 14.8113 9.63372C14.8113 9.53285 14.774 9.44074 14.6995 9.35741C14.6249 9.26969 14.5196 9.22583 14.3837 9.22583C14.3398 9.22583 14.2806 9.23241 14.206 9.24557C14.1315 9.25872 14.0525 9.28065 13.9692 9.31136C13.1534 9.63592 12.4385 10.1206 11.8245 10.7653C11.2148 11.4057 10.7389 12.1469 10.3968 12.989C10.0591 13.8311 9.89026 14.7105 9.89026 15.6271C9.89026 16.5921 10.0613 17.478 10.4034 18.285C10.7455 19.0921 11.2214 19.7938 11.831 20.3903C12.4451 20.9824 13.1644 21.4407 13.9889 21.7653C14.8135 22.0943 15.7039 22.2587 16.66 22.2587C17.3618 22.2587 18.0328 22.16 18.6732 21.9627C19.3135 21.7653 19.9012 21.489 20.4363 21.1337C20.9758 20.7828 21.4451 20.3728 21.8442 19.9035C22.2433 19.4342 22.5482 18.9254 22.7587 18.3771C22.7982 18.2894 22.8223 18.2083 22.831 18.1337C22.8442 18.0548 22.8508 17.9934 22.8508 17.9495C22.8508 17.8179 22.8091 17.7149 22.7258 17.6403C22.6425 17.5614 22.5482 17.5219 22.4429 17.5219C22.342 17.5219 22.2214 17.5504 22.081 17.6074C21.8354 17.6951 21.524 17.7741 21.1468 17.8443C20.774 17.9144 20.3903 17.9495 19.9955 17.9495Z" fill="white"/>
</svg>
