<svg width="15" height="16" viewBox="0 0 15 16" fill="none" xmlns="http://www.w3.org/2000/svg">
<g clip-path="url(#clip0_324_2247)">
<path d="M14.9009 7.75967L11.4918 4.35063C11.3694 4.20763 11.1542 4.19096 11.0112 4.31345C10.8682 4.43591 10.8515 4.65112 10.974 4.79412C10.9854 4.80745 10.9979 4.8199 11.0112 4.83129L13.8373 7.66079H0.340892C0.152634 7.66079 0 7.81343 0 8.00172C0 8.19 0.152634 8.34261 0.340892 8.34261H13.8373L11.0112 11.1687C10.8682 11.2911 10.8515 11.5064 10.974 11.6493C11.0965 11.7923 11.3117 11.809 11.4547 11.6865C11.468 11.6751 11.4805 11.6627 11.4918 11.6493L14.9009 8.24031C15.033 8.10739 15.033 7.89265 14.9009 7.75967Z" fill="#48484A"/>
</g>
<defs>
<clipPath id="clip0_324_2247">
<rect width="15" height="15" fill="white" transform="translate(0 0.5)"/>
</clipPath>
</defs>
</svg>
