<svg width="32" height="32" viewBox="0 0 32 32" fill="none" xmlns="http://www.w3.org/2000/svg">
<path fill-rule="evenodd" clip-rule="evenodd" d="M4.12619 4.12631C5.90548 2.34701 8.568 1.66675 12 1.66675H20C23.432 1.66675 26.0945 2.34701 27.8737 4.12631C29.653 5.9056 30.3333 8.56812 30.3333 12.0001V20.0001C30.3333 23.4321 29.653 26.0946 27.8737 27.8738C26.0945 29.6532 23.432 30.3334 20 30.3334H12C8.568 30.3334 5.90548 29.6532 4.12619 27.8738C2.34689 26.0946 1.66663 23.4321 1.66663 20.0001V12.0001C1.66663 8.56812 2.34689 5.9056 4.12619 4.12631Z" fill="#18335B"/>
<path d="M11.1357 9.55243C11.4449 9.24327 11.9461 9.24327 12.2553 9.55243L15.422 12.7191C15.7311 13.0283 15.7311 13.5295 15.422 13.8387C15.1128 14.1478 14.6115 14.1478 14.3024 13.8387L12.4872 12.0235V21.1956C12.4872 21.6328 12.1327 21.9872 11.6955 21.9872C11.2583 21.9872 10.9038 21.6328 10.9038 21.1956V12.0235L9.08864 13.8387C8.77948 14.1478 8.27822 14.1478 7.96905 13.8387C7.65989 13.5295 7.65989 13.0283 7.96905 12.7191L11.1357 9.55243ZM18.8205 19.2843V10.1122C18.8205 9.675 19.1749 9.32056 19.6122 9.32056C20.0494 9.32056 20.4039 9.675 20.4039 10.1122V19.2843L22.2191 17.4691C22.5282 17.16 23.0295 17.16 23.3386 17.4691C23.6478 17.7782 23.6478 18.2795 23.3386 18.5887L20.172 21.7553C20.0235 21.9038 19.8221 21.9872 19.6122 21.9872C19.4022 21.9872 19.2008 21.9038 19.0524 21.7553L15.8857 18.5887C15.5766 18.2795 15.5766 17.7782 15.8857 17.4691C16.1949 17.16 16.6962 17.16 17.0053 17.4691L18.8205 19.2843Z" fill="white"/>
</svg>
