<svg width="22" height="22" viewBox="0 0 22 22" fill="none" xmlns="http://www.w3.org/2000/svg">
<path fill-rule="evenodd" clip-rule="evenodd" d="M8.23449 0.281067C8.76963 0.54864 8.98652 1.19937 8.71898 1.73451L6.78105 5.61036C6.51347 6.14551 5.86275 6.36241 5.3276 6.09484C4.79246 5.82727 4.57555 5.17654 4.84312 4.6414L6.78105 0.765545C7.04862 0.2304 7.69934 0.013495 8.23449 0.281067Z" fill="#18335B"/>
<path fill-rule="evenodd" clip-rule="evenodd" d="M13.7656 0.281042C14.3008 0.0134699 14.9515 0.230386 15.2191 0.765531L17.157 4.64137C17.4245 5.17652 17.2077 5.82725 16.6725 6.09482C16.1373 6.36239 15.4866 6.14548 15.2191 5.61034L13.2811 1.73449C13.0135 1.19934 13.2304 0.548615 13.7656 0.281042Z" fill="#18335B"/>
<path fill-rule="evenodd" clip-rule="evenodd" d="M4.99748 4.5C2.36043 4.5 0.33476 6.83561 0.707697 9.44617L1.81291 17.1827C2.19414 19.8513 4.47954 21.8333 7.17514 21.8333H14.8252C17.5209 21.8333 19.8063 19.8513 20.1875 17.1827L21.2927 9.44617C21.6656 6.83561 19.64 4.5 17.0029 4.5H4.99748ZM11 8.83333C11.5983 8.83333 12.0833 9.31834 12.0833 9.91667V12.0833H14.25C14.8483 12.0833 15.3333 12.5683 15.3333 13.1667C15.3333 13.765 14.8483 14.25 14.25 14.25H12.0833V16.4167C12.0833 17.015 11.5983 17.5 11 17.5C10.4016 17.5 9.91663 17.015 9.91663 16.4167V14.25H7.74996C7.15166 14.25 6.66663 13.765 6.66663 13.1667C6.66663 12.5683 7.15166 12.0833 7.74996 12.0833H9.91663V9.91667C9.91663 9.31834 10.4016 8.83333 11 8.83333Z" fill="#18335B"/>
</svg>
