<svg width="26" height="26" viewBox="0 0 26 26" fill="none" xmlns="http://www.w3.org/2000/svg">
<path fill-rule="evenodd" clip-rule="evenodd" d="M7.58342 2.16667C4.59188 2.16667 2.16675 4.5918 2.16675 7.58334V18.4167C2.16675 21.4082 4.59188 23.8333 7.58342 23.8333H18.4167C21.4083 23.8333 23.8334 21.4082 23.8334 18.4167V7.58334C23.8334 4.5918 21.4083 2.16667 18.4167 2.16667H7.58342ZM17.3334 7.58334C17.9317 7.58334 18.4167 8.06837 18.4167 8.66667V17.3333C18.4167 17.9317 17.9317 18.4167 17.3334 18.4167C16.7351 18.4167 16.2501 17.9317 16.2501 17.3333V8.66667C16.2501 8.06837 16.7351 7.58334 17.3334 7.58334ZM8.66675 14.0833C9.26505 14.0833 9.75008 14.5683 9.75008 15.1667V17.3333C9.75008 17.9317 9.26506 18.4167 8.66675 18.4167C8.06844 18.4167 7.58342 17.9317 7.58342 17.3333V15.1667C7.58342 14.5683 8.06844 14.0833 8.66675 14.0833ZM14.0834 11.9167C14.0834 11.3183 13.5984 10.8333 13.0001 10.8333C12.4018 10.8333 11.9167 11.3183 11.9167 11.9167V17.3333C11.9167 17.9317 12.4018 18.4167 13.0001 18.4167C13.5984 18.4167 14.0834 17.9317 14.0834 17.3333V11.9167Z" fill="#18335B"/>
</svg>
