<svg width="360" height="800" viewBox="0 0 360 800" fill="none" xmlns="http://www.w3.org/2000/svg">
<g clip-path="url(#clip0_338_982)">
<rect width="360" height="800" fill="white"/>
<rect width="360" height="800" fill="white"/>
<path fill-rule="evenodd" clip-rule="evenodd" d="M360 51V406.868C274.837 392.375 210 318.226 210 228.934C210 139.642 274.837 65.4933 360 51Z" fill="#104C37"/>
<path fill-rule="evenodd" clip-rule="evenodd" d="M211.896 0C208.465 131.943 120.408 242.821 0 280.362V0H211.896Z" fill="#0CAF82"/>
<path d="M37 206C37 171.206 65.2061 143 100 143H207C219.703 143 230 153.297 230 166V273C230 307.794 201.794 336 167 336H60C47.2974 336 37 325.703 37 313V206Z" fill="white" stroke="#0CAF82" stroke-width="4"/>
<path d="M164.7 216.08V287.08H137.7V248.412C137.7 248.363 137.7 248.315 137.7 248.266C137.731 242.051 140.569 236.202 145.269 232.282L164.7 216.08Z" fill="url(#paint0_linear_338_982)"/>
<path d="M134.7 242.08V287.08H115.7V262.571C115.7 262.54 115.7 262.51 115.7 262.479C115.721 258.54 117.719 254.833 121.026 252.349L134.7 242.08Z" fill="#377E14"/>
<path d="M112.7 256.08V287.08H95.7002V270.198C95.7002 270.177 95.7002 270.155 95.7002 270.134C95.7195 267.421 97.507 264.867 100.465 263.156L112.7 256.08Z" fill="#65BA27"/>
<path d="M195.19 207.859L195.239 168.09C195.24 166.413 193.882 165.051 192.204 165.049L152.434 165C149.727 164.997 148.367 168.268 150.278 170.184L157.496 177.419C159.401 179.329 159.183 182.478 157.035 184.108L71.0049 249.37L82.2526 254.429C90.9161 258.326 101.015 257.186 108.592 251.456L175.477 200.884C177.25 199.543 179.742 199.718 181.312 201.291L189.999 210C191.912 211.918 195.186 210.565 195.19 207.859Z" fill="url(#paint1_linear_338_982)"/>
<path d="M159.221 213.178L108.594 251.456C101.018 257.185 90.9191 258.331 82.2493 254.431L71 249.372L157.035 184.11C158.539 182.975 159.099 181.097 158.656 179.414C161.627 184.964 168.68 200.906 159.221 213.178Z" fill="url(#paint2_linear_338_982)"/>
<path d="M78.2033 309.352V297.532H73.7334V294.309H86.4335V297.532H81.8572V309.352H78.2033Z" fill="black"/>
<path d="M91.8699 309.566C90.681 309.566 89.6239 309.309 88.7001 308.793C87.7763 308.277 87.0461 307.575 86.508 306.686C85.9715 305.799 85.7017 304.782 85.7017 303.636C85.7017 302.489 85.9699 301.472 86.508 300.585C87.0445 299.697 87.7763 298.994 88.7001 298.478C89.6239 297.962 90.681 297.705 91.8699 297.705C93.0588 297.705 94.116 297.962 95.0398 298.478C95.9636 298.994 96.6906 299.696 97.2208 300.585C97.7509 301.474 98.016 302.489 98.016 303.636C98.016 304.782 97.7509 305.799 97.2208 306.686C96.6906 307.575 95.9636 308.277 95.0398 308.793C94.116 309.309 93.0588 309.566 91.8699 309.566ZM91.8699 306.601C92.3858 306.601 92.8446 306.472 93.2446 306.213C93.6461 305.956 93.9604 305.605 94.1906 305.161C94.4192 304.716 94.5271 304.209 94.5128 303.636C94.5271 303.062 94.4192 302.55 94.1906 302.099C93.962 301.648 93.6461 301.293 93.2446 301.035C92.843 300.778 92.3842 300.648 91.8699 300.648C91.3557 300.648 90.8922 300.777 90.4842 301.035C90.0763 301.293 89.7572 301.648 89.5287 302.099C89.3001 302.55 89.1922 303.062 89.2064 303.636C89.1922 304.209 89.3001 304.718 89.5287 305.161C89.7572 305.605 90.0763 305.956 90.4842 306.213C90.8922 306.472 91.3557 306.601 91.8699 306.601Z" fill="black"/>
<path d="M100.273 314.078V297.942H103.54L103.668 300.499L103.024 300.305C103.124 299.832 103.368 299.402 103.754 299.016C104.141 298.629 104.632 298.318 105.226 298.082C105.819 297.845 106.446 297.728 107.107 297.728C108.081 297.728 108.948 297.982 109.707 298.491C110.465 299.001 111.064 299.694 111.5 300.575C111.937 301.456 112.156 302.477 112.156 303.637C112.156 304.783 111.937 305.801 111.5 306.688C111.064 307.577 110.462 308.275 109.695 308.783C108.929 309.293 108.051 309.547 107.064 309.547C106.419 309.547 105.803 309.424 105.216 309.182C104.629 308.939 104.134 308.609 103.734 308.193C103.332 307.777 103.067 307.326 102.938 306.839L103.734 306.537V314.08H100.273V314.078ZM106.224 306.643C106.74 306.643 107.191 306.518 107.578 306.267C107.965 306.016 108.265 305.669 108.481 305.224C108.695 304.78 108.803 304.25 108.803 303.634C108.803 303.032 108.695 302.505 108.481 302.055C108.267 301.604 107.968 301.253 107.589 301.002C107.21 300.751 106.754 300.626 106.224 300.626C105.694 300.626 105.235 300.748 104.849 300.991C104.462 301.235 104.162 301.586 103.946 302.043C103.732 302.502 103.624 303.032 103.624 303.634C103.624 304.25 103.732 304.78 103.946 305.224C104.161 305.669 104.462 306.016 104.849 306.267C105.237 306.518 105.695 306.643 106.224 306.643Z" fill="black"/>
<path d="M124.942 309.352V297.532H120.472V294.309H133.172V297.532H128.596V309.352H124.942Z" fill="black"/>
<path d="M134.096 309.351V297.942H137.362L137.513 301.659L136.869 300.95C137.04 300.334 137.323 299.782 137.718 299.296C138.112 298.808 138.573 298.423 139.104 298.135C139.634 297.85 140.199 297.705 140.8 297.705C141.058 297.705 141.297 297.728 141.521 297.77C141.743 297.813 141.947 297.864 142.134 297.921L141.188 301.724C141.031 301.624 140.818 301.542 140.554 301.477C140.289 301.412 140.013 301.38 139.727 301.38C139.412 301.38 139.118 301.434 138.847 301.542C138.574 301.65 138.345 301.804 138.159 302.004C137.974 302.205 137.826 302.44 137.718 302.713C137.61 302.986 137.556 303.294 137.556 303.637V309.353H134.096V309.351Z" fill="black"/>
<path d="M147.612 309.545C146.651 309.545 145.796 309.291 145.043 308.782C144.291 308.274 143.693 307.572 143.25 306.675C142.805 305.78 142.583 304.766 142.583 303.634C142.583 302.474 142.805 301.45 143.25 300.561C143.694 299.674 144.302 298.975 145.077 298.466C145.85 297.958 146.731 297.702 147.72 297.702C148.264 297.702 148.762 297.782 149.213 297.939C149.664 298.096 150.062 298.315 150.405 298.594C150.748 298.874 151.042 299.196 151.286 299.561C151.529 299.926 151.708 300.316 151.823 300.732L151.113 300.647V297.939H154.531V309.348H151.05V306.601L151.823 306.578C151.708 306.98 151.521 307.359 151.264 307.716C151.007 308.075 150.691 308.389 150.318 308.663C149.945 308.936 149.531 309.15 149.072 309.307C148.613 309.466 148.127 309.545 147.612 309.545ZM148.556 306.643C149.086 306.643 149.545 306.521 149.931 306.278C150.318 306.036 150.618 305.688 150.834 305.236C151.05 304.783 151.156 304.251 151.156 303.636C151.156 303.02 151.048 302.486 150.834 302.034C150.62 301.582 150.318 301.232 149.931 300.982C149.543 300.731 149.085 300.605 148.556 300.605C148.04 300.605 147.593 300.731 147.213 300.982C146.834 301.232 146.537 301.583 146.321 302.034C146.107 302.485 145.999 303.02 145.999 303.636C145.999 304.251 146.107 304.785 146.321 305.236C146.535 305.686 146.834 306.034 147.213 306.278C147.593 306.523 148.042 306.643 148.556 306.643Z" fill="black"/>
<path d="M161.88 309.588C160.891 309.588 160.013 309.334 159.248 308.825C158.482 308.317 157.877 307.613 157.432 306.718C156.988 305.823 156.766 304.802 156.766 303.656C156.766 302.51 156.988 301.49 157.432 300.594C157.877 299.699 158.485 298.994 159.259 298.478C160.034 297.963 160.921 297.705 161.924 297.705C162.44 297.705 162.934 297.785 163.407 297.942C163.88 298.099 164.31 298.315 164.696 298.586C165.083 298.858 165.397 299.17 165.642 299.521C165.885 299.872 166.029 300.234 166.072 300.607L165.256 300.801V293.451H168.716V309.353H165.515L165.321 306.753L166.009 306.861C165.966 307.22 165.826 307.563 165.589 307.893C165.353 308.223 165.048 308.513 164.677 308.763C164.304 309.013 163.878 309.213 163.399 309.364C162.915 309.513 162.409 309.588 161.88 309.588ZM162.761 306.729C163.291 306.729 163.75 306.601 164.135 306.342C164.523 306.085 164.82 305.726 165.028 305.267C165.236 304.809 165.339 304.272 165.339 303.656C165.339 303.026 165.234 302.482 165.028 302.023C164.82 301.564 164.523 301.207 164.135 300.948C163.748 300.691 163.289 300.561 162.761 300.561C162.231 300.561 161.775 300.69 161.396 300.948C161.016 301.205 160.72 301.564 160.504 302.023C160.289 302.482 160.182 303.026 160.182 303.656C160.182 304.272 160.289 304.81 160.504 305.267C160.718 305.726 161.016 306.083 161.396 306.342C161.775 306.601 162.231 306.729 162.761 306.729Z" fill="black"/>
<path d="M177.05 309.566C175.789 309.566 174.693 309.312 173.762 308.802C172.831 308.294 172.108 307.599 171.593 306.718C171.077 305.837 170.82 304.831 170.82 303.699C170.82 302.826 170.962 302.023 171.25 301.293C171.535 300.563 171.937 299.928 172.453 299.391C172.969 298.855 173.582 298.439 174.289 298.145C174.999 297.851 175.775 297.704 176.621 297.704C177.423 297.704 178.158 297.847 178.824 298.134C179.491 298.421 180.067 298.821 180.555 299.337C181.042 299.853 181.415 300.463 181.672 301.164C181.929 301.866 182.045 302.632 182.016 303.464L181.994 304.388H172.905L172.412 302.455H179.202L178.837 302.863V302.432C178.809 302.075 178.697 301.756 178.504 301.477C178.31 301.198 178.056 300.98 177.742 300.821C177.426 300.664 177.069 300.585 176.667 300.585C176.108 300.585 175.632 300.696 175.239 300.918C174.845 301.14 174.547 301.463 174.347 301.885C174.145 302.307 174.047 302.828 174.047 303.442C174.047 304.072 174.178 304.62 174.443 305.086C174.708 305.552 175.096 305.913 175.604 306.172C176.112 306.429 176.718 306.559 177.42 306.559C177.907 306.559 178.34 306.488 178.72 306.345C179.099 306.202 179.512 305.958 179.956 305.615L181.567 307.893C181.123 308.28 180.65 308.594 180.15 308.839C179.648 309.083 179.135 309.266 178.613 309.386C178.085 309.505 177.566 309.566 177.05 309.566Z" fill="black"/>
<path d="M184.205 309.351V297.942H187.472L187.623 301.659L186.978 300.95C187.15 300.334 187.432 299.782 187.828 299.296C188.221 298.808 188.683 298.423 189.213 298.135C189.743 297.85 190.309 297.705 190.91 297.705C191.167 297.705 191.407 297.728 191.631 297.77C191.853 297.813 192.056 297.864 192.243 297.921L191.297 301.724C191.14 301.624 190.928 301.542 190.664 301.477C190.399 301.412 190.123 301.38 189.837 301.38C189.521 301.38 189.228 301.434 188.956 301.542C188.683 301.65 188.455 301.804 188.269 302.004C188.083 302.205 187.935 302.44 187.828 302.713C187.72 302.986 187.666 303.294 187.666 303.637V309.353H184.205V309.351Z" fill="black"/>
</g>
<defs>
<linearGradient id="paint0_linear_338_982" x1="178.222" y1="235.75" x2="124.709" y2="287.886" gradientUnits="userSpaceOnUse">
<stop stop-color="#65BA27"/>
<stop offset="0.9911" stop-color="#005E1F"/>
</linearGradient>
<linearGradient id="paint1_linear_338_982" x1="150.087" y1="201.249" x2="287.109" y2="149.246" gradientUnits="userSpaceOnUse">
<stop stop-color="#65BA27"/>
<stop offset="1" stop-color="#65BA27"/>
</linearGradient>
<linearGradient id="paint2_linear_338_982" x1="91.4605" y1="203.882" x2="151.863" y2="231.05" gradientUnits="userSpaceOnUse">
<stop stop-color="#65BA27"/>
<stop offset="1" stop-color="#65BA27"/>
</linearGradient>
<clipPath id="clip0_338_982">
<rect width="360" height="800" fill="white"/>
</clipPath>
</defs>
</svg>
